M48
; DRILL file {KiCad (5.1.8-0-10_14)} date Saturday, December 19, 2020 at 06:42:50 PM
; FORMAT={-:-/ absolute / inch / decimal}
; #@! TF.CreationDate,2020-12-19T18:42:50-08:00
; #@! TF.GenerationSoftware,Kicad,Pcbnew,(5.1.8-0-10_14)
; #@! TF.FileFunction,Plated,1,4,PTH
FMAT,2
INCH
T1C0.0157
T2C0.0276
T3C0.0315
T4C0.0394
T5C0.0906
T6C0.0984
T7C0.1181
%
G90
G05
T1
X6.2Y-2.95
X6.4Y-3.0
X6.4Y-3.4
X6.5Y-2.9036
X6.5Y-3.45
X6.6Y-2.325
X6.6Y-3.5
X6.7Y-2.275
X6.7Y-3.55
X6.8Y-2.225
X6.8Y-3.6
X6.9Y-2.175
X6.9Y-2.875
X6.9Y-3.65
X7.0Y-3.7
X7.1Y-3.75
X7.2Y-3.8
X7.3Y-2.8
X7.3Y-3.85
X7.4Y-2.525
X7.4Y-2.85
X7.4Y-3.9
X7.5Y-3.95
X7.5Y-2.475
X7.5Y-2.9
X7.6Y-2.95
X7.6Y-4.0
X7.6Y-2.425
X7.7Y-2.375
X7.7Y-3.0
X8.025Y-3.4
X8.2Y-3.45
X8.335Y-2.14
X8.375Y-3.45
T2
X4.4016Y-2.52
X4.5Y-2.52
X3.925Y-2.5
X3.925Y-2.5984
X6.1516Y-2.675
X6.25Y-2.675
X3.55Y-4.4
X3.55Y-4.7
X4.15Y-4.4
X4.15Y-4.7
X3.75Y-4.4
X3.75Y-4.7
X4.35Y-4.4
X4.35Y-4.7
X3.95Y-4.4
X3.95Y-4.7
X4.2Y-3.455
X4.5Y-3.455
X6.75Y-4.6016
X6.75Y-4.7
X3.7Y-2.375
X3.7Y-2.675
X7.8766Y-2.675
X7.975Y-2.675
T3
X4.7Y-4.1
X4.7Y-4.7
X4.8Y-4.1
X4.8Y-4.7
X4.9Y-4.1
X4.9Y-4.7
X5.0Y-4.1
X5.0Y-4.7
X5.1Y-4.1
X5.1Y-4.7
X5.2Y-4.1
X5.2Y-4.7
X5.3Y-4.1
X5.3Y-4.7
X5.4Y-4.1
X5.4Y-4.7
X5.5Y-4.1
X5.5Y-4.7
X5.6Y-4.1
X5.6Y-4.7
X5.7Y-4.1
X5.7Y-4.7
X5.8Y-4.1
X5.8Y-4.7
X5.9Y-4.1
X5.9Y-4.7
X6.0Y-4.1
X6.0Y-4.7
X6.1Y-4.1
X6.1Y-4.7
X6.2Y-4.1
X6.2Y-4.7
X6.3Y-4.1
X6.3Y-4.7
X6.4Y-4.1
X6.4Y-4.7
X6.5Y-4.1
X6.5Y-4.7
X6.6Y-4.1
X6.6Y-4.7
X3.675Y-3.83
X3.675Y-4.13
X3.775Y-3.83
X3.775Y-4.13
X3.875Y-3.83
X3.875Y-4.13
X3.975Y-3.83
X3.975Y-4.13
X4.075Y-3.83
X4.075Y-4.13
X4.175Y-3.83
X4.175Y-4.13
X4.275Y-3.83
X4.275Y-4.13
X4.1Y-2.675
X4.1Y-3.275
X4.2Y-2.675
X4.2Y-3.275
X4.3Y-2.675
X4.3Y-3.275
X4.4Y-2.675
X4.4Y-3.275
X4.5Y-2.675
X4.5Y-3.275
X4.6Y-2.675
X4.6Y-3.275
X4.7Y-2.675
X4.7Y-3.275
X4.8Y-2.675
X4.8Y-3.275
X4.9Y-2.675
X4.9Y-3.275
X5.0Y-2.675
X5.0Y-3.275
X5.1Y-2.675
X5.1Y-3.275
X5.2Y-2.675
X5.2Y-3.275
X5.3Y-2.675
X5.3Y-3.275
X5.4Y-2.675
X5.4Y-3.275
X5.5Y-2.675
X5.5Y-3.275
X5.6Y-2.675
X5.6Y-3.275
X5.7Y-2.675
X5.7Y-3.275
X5.8Y-2.675
X5.8Y-3.275
X5.9Y-2.675
X5.9Y-3.275
X6.0Y-2.675
X6.0Y-3.275
X8.125Y-2.675
X8.125Y-3.275
X8.225Y-2.675
X8.225Y-3.275
X8.325Y-2.675
X8.325Y-3.275
X8.425Y-2.675
X8.425Y-3.275
X8.525Y-2.675
X8.525Y-3.275
X8.625Y-2.675
X8.625Y-3.275
X8.725Y-2.675
X8.725Y-3.275
X8.825Y-2.675
X8.825Y-3.275
X8.925Y-2.675
X8.925Y-3.275
X9.025Y-2.675
X9.025Y-3.275
X9.125Y-2.675
X9.125Y-3.275
X9.225Y-2.675
X9.225Y-3.275
X9.325Y-2.675
X9.325Y-3.275
X9.425Y-2.675
X9.425Y-3.275
X6.4Y-2.675
X6.4Y-3.275
X6.5Y-2.675
X6.5Y-3.275
X6.6Y-2.675
X6.6Y-3.275
X6.7Y-2.675
X6.7Y-3.275
X6.8Y-2.675
X6.8Y-3.275
X6.9Y-2.675
X6.9Y-3.275
X7.0Y-2.675
X7.0Y-3.275
X7.1Y-2.675
X7.1Y-3.275
X7.2Y-2.675
X7.2Y-3.275
X7.3Y-2.675
X7.3Y-3.275
X7.4Y-2.675
X7.4Y-3.275
X7.5Y-2.675
X7.5Y-3.275
X7.6Y-2.675
X7.6Y-3.275
X7.7Y-2.675
X7.7Y-3.275
X3.55Y-2.875
X3.55Y-3.475
X3.85Y-2.875
X3.85Y-3.475
T4
X3.75Y-4.85
X3.75Y-4.95
X5.0Y-5.025
X5.1Y-5.025
X5.2Y-5.025
X5.3Y-5.025
X5.4Y-5.025
X5.5Y-5.025
X5.6Y-5.025
X5.7Y-5.025
X5.8Y-5.025
X5.9Y-5.025
X6.0Y-5.025
X6.1Y-5.025
X6.2Y-5.025
X6.3Y-5.025
X6.4Y-5.025
X6.5Y-5.025
X4.35Y-4.85
X4.35Y-4.95
X3.525Y-2.475
X3.525Y-2.575
X3.95Y-4.85
X3.95Y-4.95
X6.9Y-4.925
X6.9Y-5.025
X6.9Y-5.125
X8.725Y-2.425
X8.825Y-2.425
X8.925Y-2.425
X9.025Y-2.425
X9.125Y-2.425
X9.225Y-2.425
X9.325Y-2.425
X9.425Y-2.425
X3.55Y-4.85
X3.55Y-4.95
X4.15Y-4.85
X4.15Y-4.95
X7.925Y-4.195
X8.025Y-4.195
X8.125Y-4.195
X8.225Y-4.195
X8.325Y-4.195
X8.425Y-4.195
X8.525Y-4.195
X8.625Y-4.195
X8.725Y-4.195
X8.825Y-4.195
X8.925Y-4.195
X9.025Y-4.195
X9.125Y-4.195
X9.225Y-4.195
X9.325Y-4.195
X9.425Y-4.195
T5
X9.065Y-5.0462
T6
X8.8878Y-5.0856
X9.2422Y-5.0856
T7
X9.065Y-4.81
T0
M30
