%TF.GenerationSoftware,KiCad,Pcbnew,(5.1.8-0-10_14)*%
%TF.CreationDate,2020-12-19T18:42:48-08:00*%
%TF.ProjectId,Ben6502,42656e36-3530-4322-9e6b-696361645f70,rev?*%
%TF.SameCoordinates,Original*%
%TF.FileFunction,Soldermask,Top*%
%TF.FilePolarity,Negative*%
%FSLAX46Y46*%
G04 Gerber Fmt 4.6, Leading zero omitted, Abs format (unit mm)*
G04 Created by KiCad (PCBNEW (5.1.8-0-10_14)) date 2020-12-19 18:42:48*
%MOMM*%
%LPD*%
G01*
G04 APERTURE LIST*
%ADD10C,1.600000*%
%ADD11C,3.500000*%
%ADD12C,3.300000*%
%ADD13R,4.000000X4.000000*%
%ADD14O,1.700000X1.700000*%
%ADD15R,1.700000X1.700000*%
%ADD16C,2.500000*%
%ADD17O,1.600000X2.400000*%
%ADD18R,1.600000X2.400000*%
%ADD19R,1.600000X1.600000*%
%ADD20O,1.400000X1.400000*%
%ADD21C,1.400000*%
G04 APERTURE END LIST*
D10*
%TO.C,J3*%
X230251000Y-131174000D03*
D11*
X234751000Y-129174000D03*
X225751000Y-129174000D03*
D12*
X230251000Y-128174000D03*
D13*
X230251000Y-122174000D03*
%TD*%
D14*
%TO.C,J2*%
X201295000Y-106553000D03*
X203835000Y-106553000D03*
X206375000Y-106553000D03*
X208915000Y-106553000D03*
X211455000Y-106553000D03*
X213995000Y-106553000D03*
X216535000Y-106553000D03*
X219075000Y-106553000D03*
X221615000Y-106553000D03*
X224155000Y-106553000D03*
X226695000Y-106553000D03*
X229235000Y-106553000D03*
X231775000Y-106553000D03*
X234315000Y-106553000D03*
X236855000Y-106553000D03*
D15*
X239395000Y-106553000D03*
%TD*%
D14*
%TO.C,J1*%
X221615000Y-61595000D03*
X224155000Y-61595000D03*
X226695000Y-61595000D03*
X229235000Y-61595000D03*
X231775000Y-61595000D03*
X234315000Y-61595000D03*
X236855000Y-61595000D03*
D15*
X239395000Y-61595000D03*
%TD*%
D16*
%TO.C,H4*%
X240919000Y-131826000D03*
%TD*%
%TO.C,H3*%
X241046000Y-56134000D03*
%TD*%
%TO.C,H2*%
X89535000Y-132080000D03*
%TD*%
%TO.C,H1*%
X89281000Y-56007000D03*
%TD*%
D17*
%TO.C,U5*%
X206375000Y-67945000D03*
X239395000Y-83185000D03*
X208915000Y-67945000D03*
X236855000Y-83185000D03*
X211455000Y-67945000D03*
X234315000Y-83185000D03*
X213995000Y-67945000D03*
X231775000Y-83185000D03*
X216535000Y-67945000D03*
X229235000Y-83185000D03*
X219075000Y-67945000D03*
X226695000Y-83185000D03*
X221615000Y-67945000D03*
X224155000Y-83185000D03*
X224155000Y-67945000D03*
X221615000Y-83185000D03*
X226695000Y-67945000D03*
X219075000Y-83185000D03*
X229235000Y-67945000D03*
X216535000Y-83185000D03*
X231775000Y-67945000D03*
X213995000Y-83185000D03*
X234315000Y-67945000D03*
X211455000Y-83185000D03*
X236855000Y-67945000D03*
X208915000Y-83185000D03*
X239395000Y-67945000D03*
D18*
X206375000Y-83185000D03*
%TD*%
D17*
%TO.C,U2*%
X162560000Y-67945000D03*
X195580000Y-83185000D03*
X165100000Y-67945000D03*
X193040000Y-83185000D03*
X167640000Y-67945000D03*
X190500000Y-83185000D03*
X170180000Y-67945000D03*
X187960000Y-83185000D03*
X172720000Y-67945000D03*
X185420000Y-83185000D03*
X175260000Y-67945000D03*
X182880000Y-83185000D03*
X177800000Y-67945000D03*
X180340000Y-83185000D03*
X180340000Y-67945000D03*
X177800000Y-83185000D03*
X182880000Y-67945000D03*
X175260000Y-83185000D03*
X185420000Y-67945000D03*
X172720000Y-83185000D03*
X187960000Y-67945000D03*
X170180000Y-83185000D03*
X190500000Y-67945000D03*
X167640000Y-83185000D03*
X193040000Y-67945000D03*
X165100000Y-83185000D03*
X195580000Y-67945000D03*
D18*
X162560000Y-83185000D03*
%TD*%
D10*
%TO.C,X1*%
X90170000Y-88265000D03*
X97790000Y-88265000D03*
X97790000Y-73025000D03*
D19*
X90170000Y-73025000D03*
%TD*%
D17*
%TO.C,U6*%
X93345000Y-97282000D03*
X108585000Y-104902000D03*
X95885000Y-97282000D03*
X106045000Y-104902000D03*
X98425000Y-97282000D03*
X103505000Y-104902000D03*
X100965000Y-97282000D03*
X100965000Y-104902000D03*
X103505000Y-97282000D03*
X98425000Y-104902000D03*
X106045000Y-97282000D03*
X95885000Y-104902000D03*
X108585000Y-97282000D03*
D18*
X93345000Y-104902000D03*
%TD*%
D17*
%TO.C,U4*%
X119380000Y-104140000D03*
X167640000Y-119380000D03*
X121920000Y-104140000D03*
X165100000Y-119380000D03*
X124460000Y-104140000D03*
X162560000Y-119380000D03*
X127000000Y-104140000D03*
X160020000Y-119380000D03*
X129540000Y-104140000D03*
X157480000Y-119380000D03*
X132080000Y-104140000D03*
X154940000Y-119380000D03*
X134620000Y-104140000D03*
X152400000Y-119380000D03*
X137160000Y-104140000D03*
X149860000Y-119380000D03*
X139700000Y-104140000D03*
X147320000Y-119380000D03*
X142240000Y-104140000D03*
X144780000Y-119380000D03*
X144780000Y-104140000D03*
X142240000Y-119380000D03*
X147320000Y-104140000D03*
X139700000Y-119380000D03*
X149860000Y-104140000D03*
X137160000Y-119380000D03*
X152400000Y-104140000D03*
X134620000Y-119380000D03*
X154940000Y-104140000D03*
X132080000Y-119380000D03*
X157480000Y-104140000D03*
X129540000Y-119380000D03*
X160020000Y-104140000D03*
X127000000Y-119380000D03*
X162560000Y-104140000D03*
X124460000Y-119380000D03*
X165100000Y-104140000D03*
X121920000Y-119380000D03*
X167640000Y-104140000D03*
D18*
X119380000Y-119380000D03*
%TD*%
D17*
%TO.C,U3*%
X104140000Y-67945000D03*
X152400000Y-83185000D03*
X106680000Y-67945000D03*
X149860000Y-83185000D03*
X109220000Y-67945000D03*
X147320000Y-83185000D03*
X111760000Y-67945000D03*
X144780000Y-83185000D03*
X114300000Y-67945000D03*
X142240000Y-83185000D03*
X116840000Y-67945000D03*
X139700000Y-83185000D03*
X119380000Y-67945000D03*
X137160000Y-83185000D03*
X121920000Y-67945000D03*
X134620000Y-83185000D03*
X124460000Y-67945000D03*
X132080000Y-83185000D03*
X127000000Y-67945000D03*
X129540000Y-83185000D03*
X129540000Y-67945000D03*
X127000000Y-83185000D03*
X132080000Y-67945000D03*
X124460000Y-83185000D03*
X134620000Y-67945000D03*
X121920000Y-83185000D03*
X137160000Y-67945000D03*
X119380000Y-83185000D03*
X139700000Y-67945000D03*
X116840000Y-83185000D03*
X142240000Y-67945000D03*
X114300000Y-83185000D03*
X144780000Y-67945000D03*
X111760000Y-83185000D03*
X147320000Y-67945000D03*
X109220000Y-83185000D03*
X149860000Y-67945000D03*
X106680000Y-83185000D03*
X152400000Y-67945000D03*
D18*
X104140000Y-83185000D03*
%TD*%
D14*
%TO.C,U1*%
X165100000Y-127635000D03*
X162560000Y-127635000D03*
X160020000Y-127635000D03*
X157480000Y-127635000D03*
X154940000Y-127635000D03*
X152400000Y-127635000D03*
X149860000Y-127635000D03*
X147320000Y-127635000D03*
X144780000Y-127635000D03*
X142240000Y-127635000D03*
X139700000Y-127635000D03*
X137160000Y-127635000D03*
X134620000Y-127635000D03*
X132080000Y-127635000D03*
X129540000Y-127635000D03*
D15*
X127000000Y-127635000D03*
%TD*%
D14*
%TO.C,SW5*%
X90170000Y-123190000D03*
D15*
X90170000Y-125730000D03*
%TD*%
D14*
%TO.C,SW4*%
X95250000Y-123190000D03*
D15*
X95250000Y-125730000D03*
%TD*%
D14*
%TO.C,SW3*%
X100330000Y-123190000D03*
D15*
X100330000Y-125730000D03*
%TD*%
D14*
%TO.C,SW2*%
X105410000Y-123190000D03*
D15*
X105410000Y-125730000D03*
%TD*%
D14*
%TO.C,SW1*%
X110490000Y-123190000D03*
D15*
X110490000Y-125730000D03*
%TD*%
D14*
%TO.C,RV1*%
X175260000Y-130175000D03*
X175260000Y-127635000D03*
D15*
X175260000Y-125095000D03*
%TD*%
D14*
%TO.C,RESET1*%
X89535000Y-62865000D03*
D15*
X89535000Y-65405000D03*
%TD*%
D20*
%TO.C,R7*%
X90170000Y-111760000D03*
D21*
X90170000Y-119380000D03*
%TD*%
D20*
%TO.C,R6*%
X95250000Y-111760000D03*
D21*
X95250000Y-119380000D03*
%TD*%
D20*
%TO.C,R5*%
X100330000Y-111760000D03*
D21*
X100330000Y-119380000D03*
%TD*%
D20*
%TO.C,R4*%
X105410000Y-111760000D03*
D21*
X105410000Y-119380000D03*
%TD*%
D20*
%TO.C,R3*%
X110490000Y-111760000D03*
D21*
X110490000Y-119380000D03*
%TD*%
D20*
%TO.C,R2*%
X114300000Y-87757000D03*
D21*
X106680000Y-87757000D03*
%TD*%
D20*
%TO.C,R1*%
X93980000Y-67945000D03*
D21*
X93980000Y-60325000D03*
%TD*%
%TO.C,C5*%
X200065000Y-67945000D03*
X202565000Y-67945000D03*
%TD*%
%TO.C,C4*%
X171450000Y-116880000D03*
X171450000Y-119380000D03*
%TD*%
%TO.C,C3*%
X111800000Y-64008000D03*
X114300000Y-64008000D03*
%TD*%
%TO.C,C2*%
X156250000Y-67945000D03*
X158750000Y-67945000D03*
%TD*%
%TO.C,C1*%
X99695000Y-66000000D03*
X99695000Y-63500000D03*
%TD*%
M02*
